<?xml version="1.0" standalone="no"?>
<!DOCTYPE svg PUBLIC "-//W3C//DTD SVG 20010904//EN"
 "http://www.w3.org/TR/2001/REC-SVG-20010904/DTD/svg10.dtd">
<svg version="1.0" xmlns="http://www.w3.org/2000/svg"
 width="512.000000pt" height="512.000000pt" viewBox="0 0 512.000000 512.000000"
 preserveAspectRatio="xMidYMid meet">

<g transform="translate(0.000000,512.000000) scale(0.100000,-0.100000)"
fill="#FFFFFF" stroke="none">
<path d="M2560 3645 l0 -1075 270 0 270 0 0 405 0 405 528 -2 527 -3 3 -402 2
-403 275 0 275 0 0 1075 0 1075 -275 0 -275 0 -2 -392 -3 -393 -527 -3 -528
-2 0 395 0 395 -270 0 -270 0 0 -1075z"/>
<path d="M1270 4686 c-398 -84 -712 -374 -824 -760 -74 -255 -50 -536 65 -773
44 -88 116 -196 129 -191 4 2 91 91 194 198 128 134 184 200 180 210 -63 149
-77 257 -50 374 58 247 267 403 513 382 136 -11 242 -69 295 -162 l30 -54 352
0 c194 0 355 3 359 6 16 16 -67 203 -137 308 -140 209 -361 369 -611 442 -78
23 -112 27 -260 30 -117 2 -190 -1 -235 -10z"/>
<path d="M1256 2810 c-295 -307 -557 -583 -582 -612 -198 -229 -297 -536 -266
-820 57 -523 446 -912 967 -968 312 -34 639 83 866 310 160 160 274 385 304
600 l8 55 18 -90 c47 -236 159 -442 324 -593 370 -339 910 -383 1327 -109 332
219 522 616 479 1003 -65 580 -549 998 -1121 971 -504 -25 -914 -382 -1009
-882 l-17 -89 -12 72 c-57 345 -279 640 -597 793 -55 27 -124 54 -153 60 -29
7 -51 16 -50 20 2 4 172 182 379 396 206 213 383 400 393 416 l18 27 -369 0
-370 0 -537 -560z m348 -815 c151 -39 277 -140 345 -275 228 -456 -252 -937
-708 -709 -189 94 -303 298 -288 510 18 238 188 428 432 482 46 10 165 6 219
-8z m2150 0 c99 -26 166 -65 244 -141 150 -149 199 -355 128 -549 -87 -239
-327 -385 -573 -347 -397 62 -586 523 -346 840 130 170 348 249 547 197z"/>
</g>
</svg>
